nColumns=19
nRows=69
DataType=double
version=3
OpenSimVersion=4.1
endheader
time	ground_force_calcn_r_vx	ground_force_calcn_r_vy	ground_force_calcn_r_vz	ground_force_calcn_r_px	ground_force_calcn_r_py	ground_force_calcn_r_pz	ground_force_calcn_r_mx	ground_force_calcn_r_my	ground_force_calcn_r_mz	ground_force_calcn_l_vx	ground_force_calcn_l_vy	ground_force_calcn_l_vz	ground_force_calcn_l_px	ground_force_calcn_l_py	ground_force_calcn_l_pz	ground_force_calcn_l_mx	ground_force_calcn_l_my	ground_force_calcn_l_mz
0	-0.881579	283.967	-36.5521	-0.218354	0	-0.406428	0.00226663	-0.730108	0.0939793	0.239477	305.499	36.2275	-0.216443	0	-0.786247	0.00122244	1.55946	0.184928
0.01	-0.795356	284.154	-36.5235	-0.218295	0	-0.406469	0.0020824	-0.74397	0.0956255	0.191904	305.575	36.2239	-0.216506	0	-0.786344	0.000954827	1.52041	0.180234
0.02	-0.706267	284.326	-36.4963	-0.21822	0	-0.406504	0.0018815	-0.757445	0.0972262	0.155851	305.663	36.2264	-0.216558	0	-0.786444	0.00075608	1.48286	0.175745
0.03	-0.616426	284.477	-36.4722	-0.218126	0	-0.406528	0.00166849	-0.769995	0.0987196	0.1339	305.766	36.2366	-0.216593	0	-0.786542	0.000634118	1.44803	0.171607
0.04	-0.527629	284.599	-36.4523	-0.218006	0	-0.406536	0.00144831	-0.781208	0.100059	0.126914	305.889	36.2567	-0.2166	0	-0.78664	0.000587711	1.4165	0.167897
0.05	-0.441614	284.69	-36.4376	-0.217853	0	-0.406528	0.00122661	-0.790744	0.101208	0.134021	306.038	36.2887	-0.216574	0	-0.786738	0.00060795	1.38826	0.164614
0.06	-0.360129	284.749	-36.4298	-0.217659	0	-0.4065	0.00100968	-0.798336	0.102136	0.152494	306.221	36.3346	-0.216502	0	-0.786841	0.000678689	1.36286	0.16171
0.07	-0.285234	284.775	-36.4302	-0.217416	0	-0.406451	0.00080501	-0.803713	0.102816	0.178146	306.446	36.3958	-0.216376	0	-0.786948	0.000778803	1.3397	0.159112
0.08	-0.219489	284.769	-36.4409	-0.217114	0	-0.40638	0.00062167	-0.806564	0.103213	0.205531	306.718	36.4733	-0.216187	0	-0.787065	0.000883338	1.31822	0.156756
0.09	-0.166194	284.733	-36.4636	-0.216744	0	-0.406287	0.000470782	-0.806568	0.103291	0.228283	307.043	36.5672	-0.215928	0	-0.787191	0.000965014	1.29795	0.15458
0.1	-0.129315	284.669	-36.5	-0.2163	0	-0.40617	0.000364995	-0.803482	0.103022	0.239703	307.422	36.6772	-0.215595	0	-0.787333	0.000996781	1.27838	0.152518
0.11	-0.113361	284.58	-36.5514	-0.215775	0	-0.40603	0.000317514	-0.797085	0.102377	0.233145	307.852	36.8024	-0.215183	0	-0.78749	0.000953566	1.25911	0.150522
0.12	-0.122707	284.47	-36.6185	-0.215168	0	-0.405868	0.000339551	-0.787178	0.10133	0.202326	308.328	36.9423	-0.214694	0	-0.787666	0.000813664	1.23995	0.148565
0.13	-0.161334	284.347	-36.7018	-0.214473	0	-0.405686	0.000438949	-0.773638	0.0998567	0.141528	308.842	37.0963	-0.214124	0	-0.787861	0.000559478	1.2209	0.146647
0.14	-0.232387	284.22	-36.8013	-0.213697	0	-0.405486	0.000618514	-0.756469	0.097949	0.04611	309.39	37.2644	-0.213477	0	-0.788075	0.000179157	1.20211	0.144788
0.15	-0.337503	284.101	-36.9167	-0.212843	0	-0.405272	0.000874138	-0.735828	0.095615	-0.0870514	309.967	37.4472	-0.212754	0	-0.788309	-0.000332485	1.18389	0.143026
0.16	-0.477377	284.006	-37.0477	-0.211923	0	-0.405048	0.00119672	-0.711966	0.0928737	-0.259517	310.572	37.6459	-0.211958	0	-0.788561	-0.000974772	1.16654	0.141402
0.17	-0.651992	283.944	-37.1927	-0.210944	0	-0.40482	0.00157349	-0.68526	0.0897595	-0.471483	311.204	37.8617	-0.211096	0	-0.788836	-0.00174279	1.15034	0.139952
0.18	-0.860801	283.924	-37.3499	-0.209921	0	-0.404588	0.00198938	-0.65617	0.0863186	-0.722261	311.857	38.0953	-0.21017	0	-0.78913	-0.00262972	1.13546	0.138703
0.19	-1.10288	283.945	-37.5172	-0.208862	0	-0.404356	0.00242844	-0.625219	0.0826091	-1.01076	312.522	38.3469	-0.209184	0	-0.789447	-0.00362837	1.12187	0.137655
0.2	-1.37693	284.001	-37.6928	-0.20778	0	-0.404126	0.00287525	-0.593038	0.0787085	-1.33643	313.183	38.6162	-0.208142	0	-0.789786	-0.00473422	1.10943	0.136796
0.21	-1.68144	284.078	-37.8754	-0.206688	0	-0.4039	0.00331682	-0.560376	0.0747133	-1.70012	313.816	38.9018	-0.207048	0	-0.790147	-0.00594924	1.09814	0.136129
0.22	-2.0148	284.163	-38.0631	-0.205596	0	-0.403681	0.00374373	-0.528008	0.0707257	-2.10401	314.396	39.2012	-0.205909	0	-0.790527	-0.00728231	1.08817	0.135681
0.23	-2.37526	284.237	-38.2543	-0.204519	0	-0.403469	0.0041509	-0.496719	0.0668515	-2.55098	314.894	39.5106	-0.204729	0	-0.790925	-0.00874762	1.07981	0.135487
0.24	-2.76047	284.286	-38.4478	-0.203467	0	-0.403266	0.00453791	-0.467335	0.0632039	-3.04427	315.282	39.8253	-0.203513	0	-0.791338	-0.0103634	1.0733	0.135575
0.25	-3.16715	284.302	-38.6428	-0.202455	0	-0.403072	0.00490933	-0.440692	0.0598995	-3.58692	315.537	40.1409	-0.202269	0	-0.791761	-0.0121499	1.06881	0.135968
0.26	-3.59117	284.279	-38.8388	-0.201495	0	-0.402887	0.00527536	-0.4176	0.0570534	-4.1811	315.642	40.4538	-0.201002	0	-0.79219	-0.0141272	1.0665	0.136686
0.27	-4.02763	284.21	-39.0346	-0.2006	0	-0.40271	0.00565148	-0.398797	0.0547725	-4.82814	315.581	40.7612	-0.199721	0	-0.792622	-0.0163156	1.06643	0.137743
0.28	-4.4712	284.091	-39.2286	-0.199782	0	-0.402542	0.00605771	-0.384894	0.053148	-5.52845	315.343	41.0603	-0.198433	0	-0.793049	-0.0187344	1.06861	0.139142
0.29	-4.91677	283.911	-39.4179	-0.19905	0	-0.402383	0.00651784	-0.376362	0.0522538	-6.28123	314.92	41.3481	-0.197149	0	-0.793469	-0.0213997	1.07291	0.14087
0.3	-5.35939	283.657	-39.5984	-0.198413	0	-0.402234	0.00705637	-0.373472	0.0521367	-7.08425	314.307	41.621	-0.195876	0	-0.793878	-0.0243235	1.07916	0.142904
0.31	-5.79423	283.307	-39.7652	-0.197882	0	-0.402097	0.00769352	-0.376173	0.0527998	-7.93346	313.498	41.8738	-0.194628	0	-0.794271	-0.0275091	1.08705	0.145197
0.32	-6.21635	282.839	-39.9135	-0.197461	0	-0.401974	0.00844026	-0.384025	0.0541927	-8.82232	312.489	42.1009	-0.193418	0	-0.794644	-0.0309466	1.09614	0.14768
0.33	-6.62035	282.22	-40.0383	-0.197158	0	-0.40187	0.00929721	-0.396332	0.0562273	-9.74045	311.273	42.2964	-0.192262	0	-0.794993	-0.0346072	1.10593	0.150276
0.34	-7.0005	281.414	-40.1338	-0.196984	0	-0.401788	0.0102526	-0.412145	0.0587781	-10.6731	309.847	42.4548	-0.191181	0	-0.795311	-0.0384412	1.11598	0.152909
0.35	-7.35081	280.382	-40.1943	-0.196946	0	-0.401732	0.0112792	-0.430223	0.0616749	-11.6007	308.211	42.5718	-0.190195	0	-0.795592	-0.0423729	1.12578	0.155499
0.36	-7.66549	279.082	-40.2138	-0.197054	0	-0.401706	0.0123364	-0.449138	0.0647176	-12.4996	306.363	42.6442	-0.189329	0	-0.795833	-0.0462986	1.13477	0.157954
0.37	-7.9396	277.474	-40.1861	-0.197321	0	-0.40172	0.0133722	-0.467333	0.0676829	-13.3439	304.299	42.6704	-0.188606	0	-0.79603	-0.0500929	1.14233	0.160184
0.38	-8.16891	275.517	-40.1046	-0.197757	0	-0.40178	0.014327	-0.483215	0.0703374	-14.1084	302.011	42.6497	-0.188049	0	-0.79618	-0.0536207	1.14783	0.162096
0.39	-8.34982	273.172	-39.9623	-0.198371	0	-0.401892	0.0151427	-0.495406	0.072473	-14.7715	299.488	42.5828	-0.187679	0	-0.79628	-0.0567508	1.1506	0.163599
0.4	-8.48037	270.401	-39.7514	-0.199167	0	-0.402065	0.0157719	-0.502894	0.0739298	-15.3163	296.712	42.4711	-0.187515	0	-0.796329	-0.0593576	1.14989	0.164594
0.41	-8.56176	267.172	-39.4633	-0.200145	0	-0.402303	0.0161845	-0.50504	0.0745982	-15.7291	293.662	42.3162	-0.187571	0	-0.796323	-0.0613259	1.14495	0.164986
0.42	-8.59792	263.456	-39.0899	-0.2013	0	-0.402612	0.0163671	-0.501516	0.0744117	-15.9988	290.317	42.1193	-0.187865	0	-0.796263	-0.0625611	1.13524	0.164702
0.43	-8.59338	259.241	-38.6246	-0.202624	0	-0.402991	0.0163119	-0.492091	0.0733171	-16.1172	286.659	41.8804	-0.188412	0	-0.796143	-0.0630061	1.12062	0.163721
0.44	-8.55123	254.536	-38.0643	-0.20411	0	-0.403444	0.0160134	-0.476654	0.0712808	-16.08	282.685	41.5982	-0.189231	0	-0.795963	-0.0626554	1.10148	0.162086
0.45	-8.47244	249.382	-37.4112	-0.205756	0	-0.403969	0.015468	-0.455293	0.0683013	-15.8885	278.409	41.2702	-0.190341	0	-0.795717	-0.0615627	1.07874	0.159908
0.46	-8.35628	243.858	-36.674	-0.207564	0	-0.404568	0.0146754	-0.428265	0.0644072	-15.5494	273.859	40.8931	-0.191767	0	-0.7954	-0.0598375	1.05387	0.157365
0.47	-8.2014	238.085	-35.8681	-0.20955	0	-0.405241	0.0136448	-0.396105	0.0596743	-15.0738	269.088	40.4648	-0.193532	0	-0.795009	-0.0576279	1.02874	0.154699
0.48	-8.00605	232.221	-35.016	-0.211741	0	-0.405986	0.0123995	-0.359655	0.0542315	-14.4747	264.175	39.9872	-0.195665	0	-0.794541	-0.0550936	1.0055	0.1522
0.49	-7.76659	226.455	-34.1478	-0.214177	0	-0.406802	0.0109733	-0.319954	0.0482469	-13.7658	259.228	39.4692	-0.198199	0	-0.793995	-0.0523818	0.986419	0.150189
0.5	-7.47435	220.997	-33.3015	-0.216908	0	-0.407681	0.00940869	-0.27819	0.0419198	-12.961	254.392	38.9296	-0.201166	0	-0.793372	-0.0496046	0.973614	0.148992
0.51	-7.11399	216.066	-32.5206	-0.219984	0	-0.408613	0.0077592	-0.235662	0.0354701	-12.0731	249.839	38.3961	-0.204597	0	-0.792681	-0.0468263	0.969014	0.148921
0.52	-6.66492	211.874	-31.8509	-0.223451	0	-0.409579	0.00609493	-0.193755	0.029127	-11.1133	245.758	37.9038	-0.208511	0	-0.791932	-0.0440554	0.974234	0.150258
0.53	-6.10539	208.611	-31.3358	-0.227331	0	-0.410556	0.00450468	-0.153917	0.0231202	-10.0881	242.331	37.4894	-0.212907	0	-0.791141	-0.0412346	0.990519	0.153237
0.54	-5.41644	206.422	-31.009	-0.231617	0	-0.411522	0.00308907	-0.117725	0.0176849	-8.9969	239.714	37.1869	-0.217757	0	-0.79033	-0.0382316	1.01865	0.158023
0.55	-4.58456	205.398	-30.8889	-0.236262	0	-0.412451	0.00193937	-0.0868877	0.0130667	-7.8328	238.016	37.0228	-0.223003	0	-0.789522	-0.0348505	1.059	0.164725
0.56	-3.6035	205.565	-30.9758	-0.241184	0	-0.413327	0.00110643	-0.0631174	0.00951091	-6.58708	237.285	37.0136	-0.228549	0	-0.788738	-0.0308579	1.11159	0.173394
0.57	-2.47595	206.899	-31.2545	-0.24627	0	-0.414131	0.0005731	-0.0478903	0.00723438	-5.25681	237.508	37.1639	-0.234274	0	-0.787999	-0.0260246	1.17582	0.183985
0.58	-1.21629	209.332	-31.6993	-0.251389	0	-0.414856	0.000245048	-0.0421745	0.0063865	-3.84904	238.607	37.4647	-0.240033	0	-0.787324	-0.0201726	1.25053	0.196351
0.59	0.148987	212.76	-32.2771	-0.256399	0	-0.415497	-3.23229e-05	-0.0461586	0.00700256	-2.38128	240.451	37.8938	-0.245677	0	-0.786721	-0.0132108	1.33397	0.210227
0.6	1.58513	217.042	-32.9481	-0.26117	0	-0.416052	-0.000432268	-0.0591879	0.00898503	-0.879284	242.869	38.4167	-0.251068	0	-0.786194	-0.00515492	1.42385	0.225223
0.61	3.05415	222.006	-33.671	-0.26559	0	-0.416525	-0.00110208	-0.0801101	0.01215	0.624801	245.68	38.9909	-0.256085	0	-0.785749	0.00385904	1.51742	0.240825
0.62	4.51652	227.458	-34.4089	-0.269571	0	-0.416914	-0.00213627	-0.107586	0.0162751	2.09373	248.713	39.5719	-0.260637	0	-0.785379	0.0135671	1.61162	0.256421
0.63	5.93101	233.199	-35.1362	-0.273048	0	-0.417215	-0.00356615	-0.140216	0.0211264	3.48758	251.822	40.1167	-0.264655	0	-0.785082	0.023591	1.7034	0.271361
0.64	7.25442	239.042	-35.8402	-0.275981	0	-0.417425	-0.00536395	-0.176749	0.0265004	4.7676	254.883	40.5881	-0.26809	0	-0.784856	0.0334808	1.78993	0.285032
0.65	8.44285	244.814	-36.519	-0.278351	0	-0.417536	-0.00745008	-0.216027	0.0322249	5.89932	257.784	40.9578	-0.270915	0	-0.784693	0.0427697	1.86892	0.296941
0.66	9.45761	250.35	-37.175	-0.280154	0	-0.417545	-0.00970612	-0.256928	0.0381518	6.85325	260.437	41.2096	-0.273121	0	-0.784595	0.0510156	1.9387	0.306764
0.67	10.2716	255.504	-37.8103	-0.281408	0	-0.41745	-0.0119942	-0.298355	0.0441515	7.60502	262.783	41.3419	-0.274706	0	-0.784558	0.0578323	1.99833	0.314384
0.68	10.8711	260.175	-38.4245	-0.28214	0	-0.417253	-0.0141761	-0.339273	0.0501061	8.13469	264.792	41.3676	-0.27568	0	-0.784587	0.0629029	2.04755	0.319883
